<svg width="1721" height="505" viewBox="0 0 1721 505" fill="none" xmlns="http://www.w3.org/2000/svg">
<path d="M532.89 472.934V478.895H415.181L363.894 355.404H339.511V478.895H221.803V136.525H339.511V266.83H356.327C367.257 266.83 374.824 264.275 379.869 258.314C384.913 252.352 388.276 240.429 390.799 222.544C392.48 204.659 394.162 175.702 394.162 137.377H505.144C505.144 194.439 500.941 237.874 493.374 269.385C486.647 297.49 475.717 317.93 461.424 331.557L532.049 473.785L532.89 472.934Z" fill="#D6FC16"/>
<path d="M550.545 136.525H669.935V479.747H550.545V136.525Z" fill="#D6FC16"/>
<path d="M918.808 476.342C909.559 472.936 900.311 466.974 891.062 457.606C881.814 449.089 873.406 436.314 864.157 419.281L825.482 349.444C824.641 347.741 822.959 345.186 821.278 343.482C819.596 341.779 817.915 340.927 816.233 340.927C814.551 340.927 812.87 341.779 812.029 343.482C811.188 345.186 810.348 347.741 810.348 351.999V478.046H696.843V212.326C696.843 186.776 703.569 166.336 717.862 151.857C731.315 137.379 749.812 129.714 773.353 129.714C796.895 129.714 809.507 134.824 823.8 145.044C837.252 155.264 850.705 174.001 864.157 201.254L896.107 267.684L898.629 272.794C901.992 278.756 903.674 282.162 904.515 283.866C905.355 285.569 907.037 286.421 909.559 286.421C912.082 286.421 912.922 285.569 913.763 283.014C914.604 280.459 915.445 277.052 915.445 271.942V135.676H1028.11V409.912C1028.11 424.391 1024.75 437.166 1018.02 448.237C1011.29 459.309 1002.04 467.826 991.115 474.639C980.184 480.601 967.573 483.156 954.12 482.304C939.827 482.304 928.056 479.749 918.808 476.342Z" fill="#D6FC16"/>
<path d="M1276.98 476.342C1267.73 472.936 1258.48 466.974 1249.23 457.606C1239.98 449.089 1231.57 436.314 1222.33 419.281L1183.65 349.444C1182.81 347.741 1181.13 345.186 1179.45 343.482C1177.76 341.779 1176.08 340.927 1174.4 340.927C1172.72 340.927 1171.04 341.779 1170.2 343.482C1169.36 345.186 1168.52 347.741 1168.52 351.999V478.046H1055.01V212.326C1055.01 186.776 1061.74 166.336 1076.03 151.857C1089.48 137.379 1107.98 129.714 1131.52 129.714C1155.06 129.714 1167.67 134.824 1181.97 145.044C1195.42 155.264 1208.87 174.001 1222.33 201.254L1254.27 267.684L1256.8 272.794C1260.16 278.756 1261.84 282.162 1262.68 283.866C1263.52 285.569 1265.2 286.421 1267.73 286.421C1270.25 286.421 1271.09 285.569 1271.93 283.014C1271.93 280.459 1273.61 277.052 1273.61 271.942V135.676H1386.28V409.912C1386.28 424.391 1382.91 437.166 1376.19 448.237C1369.46 459.309 1360.21 467.826 1349.28 474.639C1338.35 480.601 1325.74 483.156 1312.29 482.304C1298 482.304 1286.22 479.749 1276.98 476.342Z" fill="#D6FC16"/>
<path d="M1508.19 381.805C1485.49 376.695 1467 368.179 1452.7 356.255C1427.48 334.964 1414.87 300.045 1414.87 250.649V136.525H1540.14V269.385C1540.14 283.012 1541.83 293.232 1546.03 300.897C1550.23 308.562 1557.8 311.969 1567.89 311.969C1577.98 311.969 1586.39 308.562 1590.59 300.897C1594.79 294.084 1596.48 283.012 1596.48 269.385V136.525H1720.91V250.649C1720.91 300.045 1708.3 334.964 1683.08 356.255C1668.78 368.179 1650.29 376.695 1627.58 381.805V479.747H1508.19V381.805Z" fill="#D6FC16"/>
<path d="M359.827 3.5708V141.727H356.327C341.134 141.727 327.791 146.565 317.62 156.868L317.575 156.915L317.527 156.958C306.022 167.78 296.222 180.205 288.873 195.92L288.842 195.986L288.809 196.051C280.503 212.037 271.315 234.012 260.4 262.927C256.183 274.887 251.958 286.015 246.887 298.001C230.854 337.314 213.967 370.676 197.062 398.931L197.036 398.972C179.905 426.737 155.124 450.938 124.493 470.761C93.5327 490.798 54.1549 501.13 7.40527 501.13H3.90527V379.156H7.40527C27.8621 379.156 44.312 372.988 57.7148 361.479V359.865L58.7998 358.831C72.773 345.509 84.3002 329.673 93.376 311.293C102.536 291.887 112.572 265.644 123.479 233.346L123.508 233.262L123.54 233.18C128.541 220.515 132.715 207.836 136.924 195.046L136.949 194.969L136.978 194.893C151.331 157.262 166.542 125.584 181.772 99.0132C197.223 72.0596 219.512 49.5138 248.533 31.3569C277.778 13.0602 313.763 3.57087 356.327 3.5708H359.827Z" fill="#D6FC16" stroke="white" stroke-width="7"/>
</svg>
